<svg width="283" height="283" viewBox="0 0 283 283" xmlns="http://www.w3.org/2000/svg">
  <style>
    .face-outline { fill: #a3a3ff; stroke: #8b8bff; stroke-width: 2; }
    .eye-white { fill: #FFFFFF; stroke: #000; stroke-width: 2; }
    .eye-pupil { fill: #000; }
    .smile-eye { fill: none; stroke: #000; stroke-width: 9; stroke-linecap: round; }
  </style>
  
  <!-- 얼굴 윤곽선 (털 디테일 포함) -->
  <g transform-origin="center center">
    <animateTransform
      attributeName="transform"
      type="rotate"
      values="0;1;-0.6;1.6;-0.4;1.2;-0.8;0"
      dur="6.5s"
      repeatCount="indefinite"/>
    <path class="face-outline" d="M229.58,144.78l-17.5-1.73c-0.05-1.46-0.16-2.91-0.31-4.35c5.74-0.15,11.5,0.21,17.16,1.14c0.08,0.01,0.16,0.02,0.25,0.02
      c0.72,0,1.35-0.52,1.47-1.25c0.13-0.81-0.42-1.58-1.23-1.72c-5.95-0.98-12-1.38-18.03-1.2c-0.41-2.72-1.01-5.4-1.79-8.04
      l19.95-1.26c0.82-0.05,1.45-0.76,1.4-1.59c-0.05-0.82-0.75-1.45-1.59-1.4l-20.72,1.31c-0.19-0.52-0.36-1.05-0.56-1.57
      c-0.75-1.93-1.61-3.82-2.54-5.68c8.4-1.86,16.57-5.22,23.8-9.82c0.7-0.44,0.9-1.37,0.46-2.06c-0.44-0.7-1.37-0.9-2.06-0.46
      c-7.18,4.56-15.32,7.84-23.67,9.58c-1.4-2.48-2.95-4.88-4.65-7.18l20.77-8.26c0.77-0.31,1.14-1.17,0.84-1.94
      c-0.31-0.77-1.17-1.14-1.94-0.84l-21.58,8.58c-1.27-1.57-2.61-3.08-4.01-4.54c6.29-3.61,11.91-8.19,16.74-13.64
      c0.55-0.62,0.49-1.56-0.13-2.11c-0.62-0.55-1.56-0.49-2.11,0.13c-4.79,5.41-10.41,9.91-16.71,13.42c-1.97-1.88-4.04-3.66-6.2-5.32
      l19.44-16.24c0.63-0.53,0.72-1.47,0.19-2.11c-0.53-0.63-1.47-0.72-2.11-0.19L182.59,91.2c-1.17-0.82-2.36-1.61-3.58-2.36
      l12.3-16.99c0.48-0.67,0.33-1.6-0.33-2.09c-0.67-0.48-1.6-0.33-2.09,0.33l-12.46,17.21c-1.54-0.87-3.11-1.67-4.71-2.42
      c4.04-6.11,6.7-13.23,7.55-20.46c0.1-0.82-0.49-1.56-1.31-1.66c-0.82-0.1-1.56,0.49-1.66,1.31c-0.82,6.94-3.4,13.78-7.34,19.59
      c-3.45-1.44-7-2.61-10.62-3.46l5.88-14.55c0.31-0.77-0.06-1.64-0.82-1.95c-0.77-0.31-1.64,0.06-1.95,0.82l-6.08,15.04
      c-2.76-0.52-5.56-0.86-8.37-1l0.71-16.74c0.03-0.82-0.61-1.52-1.43-1.56c-0.81-0.04-1.52,0.6-1.56,1.43l-0.71,16.8
      c-2.32,0-4.63,0.11-6.93,0.36c-1.5,0.17-2.99,0.4-4.46,0.67l0.45-17.48c0.02-0.82-0.63-1.51-1.46-1.53c-0.01,0-0.03,0-0.04,0
      c-0.81,0-1.47,0.64-1.49,1.46l-0.47,18.18c-3.21,0.74-6.36,1.73-9.42,2.94l-1.84-18.99c-0.08-0.82-0.82-1.42-1.63-1.34
      c-0.82,0.08-1.42,0.81-1.34,1.63l1.93,19.91c-2,0.89-3.95,1.87-5.86,2.95l-11.16-20.49c-0.39-0.72-1.3-0.99-2.03-0.6
      c-0.72,0.39-0.99,1.3-0.6,2.03l11.21,20.59c-1.07,0.67-2.12,1.37-3.16,2.09c-1.97-4.52-5.44-8.38-9.76-10.77
      c-0.72-0.4-1.63-0.14-2.03,0.58c-0.4,0.72-0.14,1.63,0.58,2.03c3.94,2.19,7.05,5.79,8.71,9.98c-1.26,0.96-2.49,1.97-3.69,3.01
      c-1.73-2-4.1-3.51-6.46-4.88c-3.32-1.93-6.16-3.75-7.28-6.56c-0.31-0.77-1.17-1.14-1.94-0.83c-0.77,0.31-1.14,1.18-0.83,1.94
      c1.6,4,5.62,6.33,8.56,8.04c2.23,1.29,4.33,2.62,5.75,4.3c-2.27,2.15-4.41,4.45-6.38,6.88c-3.67-3.86-6.98-8.07-9.82-12.57
      c-0.44-0.7-1.36-0.91-2.06-0.46c-0.7,0.44-0.91,1.36-0.46,2.06c3.03,4.79,6.57,9.27,10.49,13.37c-1.38,1.85-2.66,3.77-3.84,5.76
      c-5.48-3.92-10.02-9.11-13.13-15.09c-0.38-0.73-1.28-1.02-2.02-0.64c-0.73,0.38-1.02,1.28-0.64,2.02
      c3.37,6.49,8.31,12.11,14.29,16.32c-1.22,2.26-2.3,4.59-3.25,6.98c-4.31-2.25-8.22-5.27-11.47-8.89
      c-0.55-0.61-1.49-0.67-2.11-0.11c-0.61,0.55-0.67,1.5-0.11,2.11c3.57,3.98,7.89,7.28,12.65,9.71c-0.75,2.18-1.37,4.4-1.88,6.67
      l-9.18-6.98c-0.66-0.5-1.59-0.37-2.09,0.29c-0.5,0.66-0.37,1.59,0.29,2.09l10.34,7.86c-0.28,1.65-0.5,3.31-0.66,4.97l-17.18-1.5
      c-0.84-0.07-1.55,0.54-1.62,1.36c-0.07,0.82,0.54,1.55,1.36,1.62l17.22,1.51c-0.1,2.03-0.11,4.05-0.04,6.08l-19.44-1.29
      c-0.82-0.04-1.54,0.57-1.59,1.39c-0.05,0.82,0.57,1.54,1.39,1.59l19.82,1.31c0.16,1.94,0.39,3.87,0.71,5.79l-19.83,1.77
      c-0.82,0.07-1.43,0.8-1.36,1.62c0.07,0.78,0.72,1.36,1.49,1.36c0.05,0,0.09,0,0.14-0.01l20.11-1.8c0.39,1.85,0.86,3.68,1.39,5.5
      l-20.99,10.75c-0.73,0.38-1.03,1.28-0.65,2.01c0.26,0.52,0.79,0.81,1.33,0.81c0.23,0,0.46-0.05,0.68-0.16l20.55-10.53
      c1.03,3,2.26,5.93,3.7,8.76l-16.41,7.09c-0.76,0.33-1.11,1.21-0.78,1.96c0.24,0.56,0.79,0.9,1.37,0.9c0.2,0,0.4-0.04,0.59-0.12
      l16.65-7.19c0.82,1.46,1.7,2.88,2.64,4.28l-21.23,11.67c-0.72,0.4-0.99,1.31-0.59,2.03c0.27,0.5,0.78,0.78,1.31,0.78
      c0.24,0,0.49-0.06,0.72-0.18l21.53-11.83c1.19,1.61,2.45,3.16,3.79,4.65c-5.66,3.71-11.02,7.9-15.97,12.51
      c-0.6,0.56-0.64,1.51-0.07,2.11c0.29,0.32,0.69,0.48,1.09,0.48c0.37,0,0.73-0.13,1.02-0.4c4.96-4.62,10.34-8.8,16.03-12.49
      c2.21,2.22,4.59,4.29,7.15,6.16l-14.83,10.83c-0.67,0.49-0.81,1.42-0.33,2.09c0.29,0.4,0.75,0.61,1.21,0.61
      c0.31,0,0.61-0.09,0.88-0.29l15.68-11.45c0.52,0.34,1.03,0.67,1.56,1c1.15,0.7,2.32,1.35,3.5,1.97
      c-4.33,3.55-8.2,7.61-11.56,12.12c-0.49,0.66-0.35,1.6,0.31,2.09c0.27,0.2,0.58,0.29,0.89,0.29c0.46,0,0.91-0.21,1.2-0.6
      c3.48-4.68,7.54-8.84,12.1-12.43c2.1,0.98,4.24,1.86,6.42,2.62c-3.74,5.5-5.8,12.12-5.71,18.77c0.01,0.82,0.68,1.47,1.49,1.47
      c0.01,0,0.02,0,0.02,0c0.83-0.01,1.49-0.69,1.47-1.52c-0.09-6.33,1.96-12.64,5.67-17.76c3.41,1.04,6.89,1.82,10.41,2.35
      c-3.26,5.29-4.97,11.48-4.84,17.71c0.02,0.81,0.68,1.46,1.49,1.46c0.01,0,0.02,0,0.03,0c0.82-0.02,1.48-0.7,1.46-1.53
      c-0.13-6.11,1.72-12.19,5.17-17.23c2.6,0.27,5.21,0.39,7.82,0.38c-2.44,6.13-3.71,12.79-3.65,19.38c0.01,0.82,0.68,1.48,1.49,1.48
      c0,0,0.01,0,0.01,0c0.83-0.01,1.49-0.68,1.48-1.51c-0.06-6.63,1.29-13.35,3.91-19.44c2.1-0.1,4.19-0.28,6.27-0.56L153,234.94
      c-0.01,0.83,0.64,1.51,1.47,1.52c0.01,0,0.02,0,0.02,0c0.81,0,1.48-0.65,1.49-1.47l0.36-22.36c0-0.13-0.04-0.25-0.07-0.37
      c1.85-0.33,3.68-0.73,5.5-1.19c0.04,0.18,0.09,0.35,0.19,0.51c3.97,6.27,6.54,13.48,7.42,20.86c0.09,0.76,0.74,1.32,1.48,1.32
      c0.06,0,0.12,0,0.18-0.01c0.82-0.1,1.41-0.84,1.31-1.66c-0.92-7.71-3.58-15.24-7.69-21.82c2.56-0.77,5.07-1.69,7.52-2.75
      c3.71,5.35,5.87,11.82,6.07,18.33c0.03,0.81,0.69,1.45,1.49,1.45c0.02,0,0.03,0,0.05,0c0.82-0.03,1.47-0.71,1.45-1.54
      c-0.21-6.9-2.46-13.76-6.31-19.49c2.66-1.29,5.24-2.76,7.73-4.41l9.24,13.44c0.29,0.42,0.76,0.65,1.23,0.65
      c0.29,0,0.59-0.09,0.84-0.26c0.68-0.47,0.85-1.4,0.39-2.08l-9.25-13.47c2.15-1.58,4.19-3.29,6.12-5.14l9.15,10.49
      c0.3,0.34,0.71,0.51,1.13,0.51c0.35,0,0.7-0.12,0.98-0.37c0.62-0.54,0.69-1.49,0.14-2.11l-9.28-10.63
      c2.17-2.29,4.15-4.76,5.97-7.34l4.84,7.57c0.89,1.39,2,3.13,3.8,4.14c0.23,0.13,0.48,0.19,0.73,0.19c0.52,0,1.03-0.28,1.3-0.76
      c0.4-0.72,0.15-1.63-0.57-2.03c-1.14-0.64-1.99-1.97-2.74-3.14l-5.54-8.67c1.02-1.61,1.98-3.26,2.86-4.95l15.76,13.73
      c0.28,0.25,0.63,0.37,0.98,0.37c0.42,0,0.83-0.17,1.13-0.51c0.54-0.62,0.48-1.57-0.15-2.11l-16.36-14.25
      c0.86-1.84,1.67-3.71,2.37-5.62l14.02,8.63c0.24,0.15,0.51,0.22,0.78,0.22c0.5,0,0.99-0.25,1.27-0.71
      c0.43-0.7,0.21-1.62-0.49-2.06l-14.61-8.99c0.99-3.1,1.77-6.26,2.33-9.46l12.3,3.15c0.12,0.03,0.25,0.05,0.37,0.05
      c0.67,0,1.27-0.45,1.45-1.12c0.21-0.8-0.28-1.61-1.08-1.82l-12.57-3.22c0.34-2.62,0.54-5.25,0.57-7.88c0-0.07,0-0.14,0-0.21
      l17.17,1.7c0.05,0.01,0.1,0.01,0.15,0.01c0.76,0,1.41-0.58,1.49-1.35C231,145.59,230.4,144.86,229.58,144.78z">
      <animateTransform
        attributeName="transform"
        type="translate"
        values="0 0;0.6 -0.4;-0.4 0.8;1.0 -0.2;-0.6 0.6;0.2 -0.6;0 0"
        dur="8.2s"
        repeatCount="indefinite"/>
    </path>
  </g>
  
  <!-- 왼쪽 눈 그룹 -->
  <g>
    <!-- 원래 왼쪽 눈 (열린 상태) -->
    <ellipse transform="matrix(0.2623 -0.965 0.965 0.2623 -40.296 210.7663)" 
             class="eye-white" cx="117.7" cy="131.74" rx="28.98" ry="22.36">
      <animate attributeName="rx" 
               values="28.98;28.98;22;12;4;1;1;1;4;12;22;28.98;28.98" 
               dur="5.3s" 
               keyTimes="0;0.37;0.42;0.46;0.48;0.5;0.5;0.87;0.89;0.91;0.95;0.97;1"
               repeatCount="indefinite"/>
    </ellipse>
    <ellipse transform="matrix(0.2623 -0.965 0.965 0.2623 -40.296 210.7663)"
             class="eye-pupil" cx="117.7" cy="131.74" rx="3.52" ry="4.68">
      <animate attributeName="rx" 
               values="3.52;3.52;2.5;1.4;0.5;0.1;0.1;0.1;0.5;1.4;2.5;3.52;3.52" 
               dur="5.3s" 
               keyTimes="0;0.37;0.42;0.46;0.48;0.5;0.5;0.87;0.89;0.91;0.95;0.97;1"
               repeatCount="indefinite"/>
    </ellipse>
    
    <!-- 웃는 왼쪽 눈 (감긴 상태) -->
    <path class="smile-eye" 
          d="M 95 135 Q 117.7 120 140 135"
          opacity="0">
      <animate attributeName="opacity" 
               values="0;0;0;0;0.3;0.7;1;1;1;0.7;0.3;0;0" 
               dur="5.3s" 
               keyTimes="0;0.37;0.42;0.46;0.48;0.49;0.5;0.87;0.88;0.89;0.91;0.95;1"
               repeatCount="indefinite"/>
    </path>
  </g>
  
  <!-- 오른쪽 눈 그룹 -->
  <g>
    <!-- 원래 오른쪽 눈 (열린 상태) -->
    <ellipse transform="matrix(0.9636 -0.2675 0.2675 0.9636 -28.3554 49.3934)"
             class="eye-white" cx="167.11" cy="128.77" rx="22.39" ry="28.94">
      <animate attributeName="ry" 
               values="28.94;28.94;22;12;4;1;1;1;4;12;22;28.94;28.94" 
               dur="5.3s" 
               keyTimes="0;0.37;0.42;0.46;0.48;0.5;0.5;0.87;0.89;0.91;0.95;0.97;1"
               repeatCount="indefinite"/>
    </ellipse>
    <ellipse transform="matrix(0.9636 -0.2675 0.2675 0.9636 -28.3554 49.3934)"
             class="eye-pupil" cx="167.11" cy="128.77" rx="3.52" ry="4.68">
      <animate attributeName="ry" 
               values="4.68;4.68;3.5;2.3;0.7;0.13;0.13;0.13;0.7;2.3;3.5;4.68;4.68" 
               dur="5.3s" 
               keyTimes="0;0.37;0.42;0.46;0.48;0.5;0.5;0.87;0.89;0.91;0.95;0.97;1"
               repeatCount="indefinite"/>
    </ellipse>
    
    <!-- 웃는 오른쪽 눈 (감긴 상태) -->
    <path class="smile-eye" 
          d="M 145 132 Q 167.11 117 189 132"
          opacity="0">
      <animate attributeName="opacity" 
               values="0;0;0;0;0.3;0.7;1;1;1;0.7;0.3;0;0" 
               dur="5.3s" 
               keyTimes="0;0.37;0.42;0.46;0.48;0.49;0.5;0.87;0.88;0.89;0.91;0.95;1"
               repeatCount="indefinite"/>
    </path>
  </g>
</svg>